<svg width="467" height="467" viewBox="0 0 467 467" fill="none" xmlns="http://www.w3.org/2000/svg">
<path opacity="0.1" d="M233.5 466.997C362.459 466.997 467.001 362.456 467.001 233.499C467.001 104.541 362.459 0 233.5 0C104.542 0 0 104.541 0 233.499C0 362.456 104.542 466.997 233.5 466.997Z" fill="#367CFF"/>
<path d="M132.476 163.459C133.32 162.513 134.342 161.742 135.484 161.19C136.627 160.639 137.866 160.318 139.132 160.245C140.399 160.173 141.667 160.351 142.864 160.769C144.062 161.186 145.165 161.836 146.112 162.68L176.933 190.17L164.076 204.585L133.254 177.095C132.308 176.251 131.537 175.229 130.985 174.087C130.434 172.944 130.113 171.705 130.041 170.438C129.968 169.172 130.146 167.904 130.564 166.707C130.982 165.509 131.631 164.405 132.476 163.459Z" fill="white"/>
<path d="M302.92 204.584L290.063 190.169L320.885 162.679C322.796 160.974 325.307 160.099 327.864 160.245C330.421 160.391 332.816 161.547 334.521 163.458C336.225 165.37 337.101 167.88 336.955 170.438C336.809 172.995 335.653 175.389 333.741 177.094L302.92 204.584Z" fill="white"/>
<path d="M315.755 222.465C322.63 252.91 332.042 272.498 327.355 283.747C324.892 289.66 319.835 294.618 311.464 294.618C298.416 294.618 298.416 279.23 285.367 279.23C272.318 279.23 272.32 294.618 259.273 294.618C246.225 294.618 246.227 279.23 233.181 279.23C220.135 279.23 220.134 294.618 207.087 294.618C194.04 294.618 194.041 279.23 180.995 279.23C167.949 279.23 167.95 294.618 154.906 294.618C147.16 294.618 142.782 290.057 140.005 284.785C133.333 272.121 148.884 244.254 154.906 219.68C161.558 192.525 160.998 158.702 161.891 138.303C163.612 98.9638 193.809 67.0049 233.189 67.0049C272.569 67.0049 301.62 99.0306 304.488 138.303C306.034 159.475 309.462 194.595 315.755 222.465Z" fill="white"/>
<path d="M206.397 142.904C210.762 142.904 214.301 139.366 214.301 135.001C214.301 130.636 210.762 127.098 206.397 127.098C202.033 127.098 198.494 130.636 198.494 135.001C198.494 139.366 202.033 142.904 206.397 142.904Z" fill="#292A2E"/>
<path d="M260.591 142.904C264.955 142.904 268.494 139.366 268.494 135.001C268.494 130.636 264.955 127.098 260.591 127.098C256.226 127.098 252.688 130.636 252.688 135.001C252.688 139.366 256.226 142.904 260.591 142.904Z" fill="#292A2E"/>
<path d="M233.495 173.885C224.413 173.885 217.137 168.393 215.389 160.219C215.264 159.637 215.272 159.035 215.411 158.456C215.551 157.878 215.818 157.338 216.194 156.876C216.573 156.406 217.052 156.026 217.597 155.766C218.142 155.506 218.739 155.371 219.343 155.372H247.65C248.254 155.371 248.851 155.506 249.396 155.766C249.941 156.026 250.421 156.406 250.799 156.876C251.175 157.338 251.442 157.878 251.582 158.456C251.721 159.035 251.729 159.637 251.605 160.219C249.854 168.393 242.576 173.885 233.495 173.885ZM219.342 157.292C219.024 157.292 218.711 157.363 218.425 157.5C218.138 157.637 217.886 157.836 217.687 158.083C217.492 158.323 217.353 158.603 217.281 158.903C217.208 159.203 217.204 159.515 217.269 159.817C218.821 167.081 225.342 171.961 233.494 171.961C241.646 171.961 248.166 167.081 249.72 159.817C249.784 159.515 249.78 159.203 249.707 158.902C249.634 158.602 249.495 158.322 249.299 158.083C249.101 157.836 248.849 157.637 248.563 157.5C248.276 157.363 247.963 157.292 247.646 157.292H219.342Z" fill="#292A2E"/>
<path d="M419.271 374.982C376.611 430.913 309.272 467 233.504 467C157.737 467 90.3979 430.913 47.7383 374.982C96.4362 356.661 161.727 345.459 233.504 345.459C305.282 345.459 370.569 356.661 419.271 374.982Z" fill="#FD7500"/>
<path d="M438.867 122.291L319.031 121.779C319.031 101.765 330.304 97.8251 342.288 94.5748C354.273 91.3245 359.664 69.3263 380.489 68.0746C392.787 67.3349 399.237 70.4999 404.578 74.5752C404.585 74.5823 404.585 74.5894 404.592 74.5894C417.974 88.9881 429.49 105.015 438.867 122.291Z" fill="white"/>
<path d="M97.0361 271.002L3.06839 271.407C1.46332 261.596 0.489305 251.692 0.152344 241.756C20.7353 238.84 18.6301 222.482 43.2102 223.968C61.4461 225.064 66.1829 244.331 76.6736 247.176C87.1642 250.02 97.0361 253.481 97.0361 271.002Z" fill="white"/>
<path d="M151.533 373.504C151.533 371.772 151.971 370.382 152.846 369.334C153.721 368.277 154.874 367.748 156.305 367.748C157.736 367.748 158.889 368.277 159.764 369.334C160.639 370.382 161.076 371.772 161.076 373.504C161.076 375.217 160.639 376.603 159.764 377.66C158.898 378.717 157.745 379.246 156.305 379.246C154.865 379.246 153.707 378.722 152.832 377.674C151.966 376.617 151.533 375.227 151.533 373.504ZM153.639 373.504C153.639 374.734 153.871 375.71 154.336 376.43C154.81 377.15 155.466 377.51 156.305 377.51C157.134 377.51 157.781 377.154 158.246 376.443C158.72 375.723 158.957 374.743 158.957 373.504C158.957 372.264 158.72 371.289 158.246 370.578C157.781 369.858 157.134 369.498 156.305 369.498C155.475 369.498 154.824 369.858 154.35 370.578C153.876 371.298 153.639 372.273 153.639 373.504ZM155.84 375.5L156.975 374.475L161.062 378.768L159.941 379.766L155.84 375.5ZM162.389 376.047V370.947H164.357V375.828C164.357 376.995 164.754 377.578 165.547 377.578C166.03 377.578 166.408 377.368 166.682 376.949C166.955 376.521 167.092 376.015 167.092 375.432V370.947H169.033V379H167.16V378.166H167.133C166.987 378.449 166.736 378.699 166.381 378.918C166.035 379.137 165.615 379.246 165.123 379.246C164.813 379.246 164.512 379.201 164.221 379.109C163.938 379.018 163.651 378.868 163.359 378.658C163.068 378.439 162.831 378.107 162.648 377.66C162.475 377.214 162.389 376.676 162.389 376.047ZM170.4 374.939C170.4 373.636 170.756 372.606 171.467 371.85C172.187 371.084 173.089 370.701 174.174 370.701C175.231 370.701 176.111 371.089 176.812 371.863C177.523 372.638 177.879 373.65 177.879 374.898C177.879 375.236 177.87 375.486 177.852 375.65H172.383C172.383 376.206 172.551 376.685 172.889 377.086C173.235 377.487 173.704 377.688 174.297 377.688C174.716 377.688 175.085 377.583 175.404 377.373C175.732 377.154 175.979 376.881 176.143 376.553L177.77 377.127C177.514 377.729 177.081 378.234 176.471 378.645C175.869 379.046 175.126 379.246 174.242 379.246C173.112 379.246 172.187 378.859 171.467 378.084C170.756 377.3 170.4 376.252 170.4 374.939ZM172.396 374.297H175.896C175.896 373.732 175.742 373.249 175.432 372.848C175.131 372.447 174.712 372.246 174.174 372.246C173.627 372.246 173.194 372.451 172.875 372.861C172.565 373.262 172.406 373.741 172.396 374.297ZM184.619 374.967C184.619 375.769 184.765 376.407 185.057 376.881C185.357 377.346 185.777 377.578 186.314 377.578C186.825 377.578 187.235 377.355 187.545 376.908C187.855 376.452 188.01 375.805 188.01 374.967C188.01 374.165 187.859 373.531 187.559 373.066C187.258 372.602 186.843 372.369 186.314 372.369C185.777 372.369 185.357 372.611 185.057 373.094C184.765 373.568 184.619 374.192 184.619 374.967ZM182.705 382.227V370.947H184.578V371.85C185.079 371.084 185.749 370.701 186.588 370.701C187.572 370.701 188.388 371.084 189.035 371.85C189.691 372.615 190.02 373.654 190.02 374.967C190.02 375.714 189.915 376.375 189.705 376.949C189.495 377.514 189.217 377.961 188.871 378.289C188.525 378.608 188.156 378.845 187.764 379C187.381 379.164 186.989 379.246 186.588 379.246C186.096 379.246 185.686 379.141 185.357 378.932C185.038 378.713 184.801 378.467 184.646 378.193V382.227H182.705ZM190.936 374.939C190.936 373.636 191.291 372.606 192.002 371.85C192.722 371.084 193.624 370.701 194.709 370.701C195.766 370.701 196.646 371.089 197.348 371.863C198.059 372.638 198.414 373.65 198.414 374.898C198.414 375.236 198.405 375.486 198.387 375.65H192.918C192.918 376.206 193.087 376.685 193.424 377.086C193.77 377.487 194.24 377.688 194.832 377.688C195.251 377.688 195.62 377.583 195.939 377.373C196.268 377.154 196.514 376.881 196.678 376.553L198.305 377.127C198.049 377.729 197.617 378.234 197.006 378.645C196.404 379.046 195.661 379.246 194.777 379.246C193.647 379.246 192.722 378.859 192.002 378.084C191.291 377.3 190.936 376.252 190.936 374.939ZM192.932 374.297H196.432C196.432 373.732 196.277 373.249 195.967 372.848C195.666 372.447 195.247 372.246 194.709 372.246C194.162 372.246 193.729 372.451 193.41 372.861C193.1 373.262 192.941 373.741 192.932 374.297ZM199.74 379V370.947H201.627V371.836C201.764 371.562 202.01 371.307 202.365 371.07C202.73 370.824 203.199 370.701 203.773 370.701C205.533 370.701 206.412 371.745 206.412 373.832V379H204.471V374.064C204.471 373.445 204.375 373.007 204.184 372.752C203.992 372.497 203.71 372.369 203.336 372.369C202.862 372.369 202.47 372.561 202.16 372.943C201.85 373.326 201.695 373.805 201.695 374.379V379H199.74ZM209.639 376.676C209.639 376.94 209.739 377.163 209.939 377.346C210.149 377.528 210.427 377.619 210.773 377.619C211.293 377.619 211.735 377.446 212.1 377.1C212.464 376.753 212.646 376.298 212.646 375.732V375.104C212.282 375.195 211.817 375.281 211.252 375.363C210.176 375.536 209.639 375.974 209.639 376.676ZM207.643 376.84C207.643 376.102 207.921 375.495 208.477 375.021C209.042 374.548 209.88 374.229 210.992 374.064C211.867 373.919 212.419 373.814 212.646 373.75V373.326C212.646 372.971 212.519 372.702 212.264 372.52C212.008 372.328 211.671 372.232 211.252 372.232C210.413 372.232 209.675 372.579 209.037 373.271L207.861 372.26C208.736 371.221 209.862 370.701 211.238 370.701C212.451 370.701 213.312 370.993 213.822 371.576C214.342 372.15 214.602 372.971 214.602 374.037V379H212.701V378.084C212.528 378.403 212.241 378.676 211.84 378.904C211.448 379.132 210.997 379.246 210.486 379.246C209.611 379.246 208.919 379.023 208.408 378.576C207.898 378.13 207.643 377.551 207.643 376.84ZM216.447 379.041V376.799H218.963V379.041H216.447ZM218.662 375.855H216.762L216.625 367.912H218.785L218.662 375.855ZM224.596 379V367.994H226.688L229.791 373.736L230.98 375.951H231.049C230.903 374.885 230.83 373.818 230.83 372.752V367.994H232.867V379H230.775L227.686 373.408L226.469 371.098H226.414C226.56 372.109 226.633 373.176 226.633 374.297V379H224.596ZM236.436 376.676C236.436 376.94 236.536 377.163 236.736 377.346C236.946 377.528 237.224 377.619 237.57 377.619C238.09 377.619 238.532 377.446 238.896 377.1C239.261 376.753 239.443 376.298 239.443 375.732V375.104C239.079 375.195 238.614 375.281 238.049 375.363C236.973 375.536 236.436 375.974 236.436 376.676ZM234.439 376.84C234.439 376.102 234.717 375.495 235.273 375.021C235.839 374.548 236.677 374.229 237.789 374.064C238.664 373.919 239.215 373.814 239.443 373.75V373.326C239.443 372.971 239.316 372.702 239.061 372.52C238.805 372.328 238.468 372.232 238.049 372.232C237.21 372.232 236.472 372.579 235.834 373.271L234.658 372.26C235.533 371.221 236.659 370.701 238.035 370.701C239.247 370.701 240.109 370.993 240.619 371.576C241.139 372.15 241.398 372.971 241.398 374.037V379H239.498V378.084C239.325 378.403 239.038 378.676 238.637 378.904C238.245 379.132 237.794 379.246 237.283 379.246C236.408 379.246 235.715 379.023 235.205 378.576C234.695 378.13 234.439 377.551 234.439 376.84ZM242.643 374.967C242.643 373.636 242.962 372.592 243.6 371.836C244.247 371.079 245.076 370.701 246.088 370.701C246.516 370.701 246.895 370.801 247.223 371.002C247.56 371.193 247.82 371.421 248.002 371.686V367.639H249.957V379H248.057V378.084C247.883 378.403 247.615 378.676 247.25 378.904C246.895 379.132 246.503 379.246 246.074 379.246C245.646 379.246 245.236 379.164 244.844 379C244.452 378.845 244.087 378.608 243.75 378.289C243.413 377.961 243.144 377.514 242.943 376.949C242.743 376.375 242.643 375.714 242.643 374.967ZM244.652 374.967C244.652 375.805 244.803 376.452 245.104 376.908C245.413 377.355 245.833 377.578 246.361 377.578C246.863 377.578 247.264 377.346 247.564 376.881C247.874 376.416 248.029 375.778 248.029 374.967C248.029 374.192 247.883 373.568 247.592 373.094C247.3 372.611 246.89 372.369 246.361 372.369C245.805 372.369 245.382 372.606 245.09 373.08C244.798 373.554 244.652 374.183 244.652 374.967ZM253.361 376.676C253.361 376.94 253.462 377.163 253.662 377.346C253.872 377.528 254.15 377.619 254.496 377.619C255.016 377.619 255.458 377.446 255.822 377.1C256.187 376.753 256.369 376.298 256.369 375.732V375.104C256.005 375.195 255.54 375.281 254.975 375.363C253.899 375.536 253.361 375.974 253.361 376.676ZM251.365 376.84C251.365 376.102 251.643 375.495 252.199 375.021C252.764 374.548 253.603 374.229 254.715 374.064C255.59 373.919 256.141 373.814 256.369 373.75V373.326C256.369 372.971 256.242 372.702 255.986 372.52C255.731 372.328 255.394 372.232 254.975 372.232C254.136 372.232 253.398 372.579 252.76 373.271L251.584 372.26C252.459 371.221 253.585 370.701 254.961 370.701C256.173 370.701 257.035 370.993 257.545 371.576C258.064 372.15 258.324 372.971 258.324 374.037V379H256.424V378.084C256.251 378.403 255.964 378.676 255.562 378.904C255.171 379.132 254.719 379.246 254.209 379.246C253.334 379.246 252.641 379.023 252.131 378.576C251.62 378.13 251.365 377.551 251.365 376.84ZM265.42 374.967C265.42 375.769 265.566 376.407 265.857 376.881C266.158 377.346 266.577 377.578 267.115 377.578C267.626 377.578 268.036 377.355 268.346 376.908C268.656 376.452 268.811 375.805 268.811 374.967C268.811 374.165 268.66 373.531 268.359 373.066C268.059 372.602 267.644 372.369 267.115 372.369C266.577 372.369 266.158 372.611 265.857 373.094C265.566 373.568 265.42 374.192 265.42 374.967ZM263.506 382.227V370.947H265.379V371.85C265.88 371.084 266.55 370.701 267.389 370.701C268.373 370.701 269.189 371.084 269.836 371.85C270.492 372.615 270.82 373.654 270.82 374.967C270.82 375.714 270.715 376.375 270.506 376.949C270.296 377.514 270.018 377.961 269.672 378.289C269.326 378.608 268.956 378.845 268.564 379C268.182 379.164 267.79 379.246 267.389 379.246C266.896 379.246 266.486 379.141 266.158 378.932C265.839 378.713 265.602 378.467 265.447 378.193V382.227H263.506ZM273.746 374.98C273.746 375.892 273.919 376.553 274.266 376.963C274.621 377.373 275.027 377.578 275.482 377.578C275.929 377.578 276.33 377.373 276.686 376.963C277.05 376.544 277.232 375.883 277.232 374.98C277.232 374.069 277.055 373.408 276.699 372.998C276.344 372.579 275.938 372.369 275.482 372.369C275.027 372.369 274.621 372.574 274.266 372.984C273.919 373.395 273.746 374.06 273.746 374.98ZM271.736 374.98C271.736 373.786 272.051 372.775 272.68 371.945C273.309 371.116 274.243 370.701 275.482 370.701C276.321 370.701 277.032 370.911 277.615 371.33C278.199 371.749 278.613 372.273 278.859 372.902C279.105 373.522 279.229 374.215 279.229 374.98C279.229 375.345 279.197 375.71 279.133 376.074C279.069 376.43 278.946 376.803 278.764 377.195C278.59 377.587 278.367 377.934 278.094 378.234C277.829 378.526 277.469 378.768 277.014 378.959C276.567 379.15 276.057 379.246 275.482 379.246C274.917 379.246 274.411 379.155 273.965 378.973C273.518 378.79 273.158 378.558 272.885 378.275C272.611 377.984 272.383 377.646 272.201 377.264C272.028 376.872 271.905 376.493 271.832 376.129C271.768 375.755 271.736 375.372 271.736 374.98ZM280.582 379V370.947H282.455V371.713C282.619 371.439 282.861 371.202 283.18 371.002C283.508 370.801 283.886 370.701 284.314 370.701C284.734 370.701 285.076 370.751 285.34 370.852V372.643C285.021 372.542 284.684 372.492 284.328 372.492C283.745 372.492 283.298 372.72 282.988 373.176C282.688 373.632 282.537 374.242 282.537 375.008V379H280.582ZM291.164 376.676C291.164 376.94 291.264 377.163 291.465 377.346C291.674 377.528 291.952 377.619 292.299 377.619C292.818 377.619 293.26 377.446 293.625 377.1C293.99 376.753 294.172 376.298 294.172 375.732V375.104C293.807 375.195 293.342 375.281 292.777 375.363C291.702 375.536 291.164 375.974 291.164 376.676ZM289.168 376.84C289.168 376.102 289.446 375.495 290.002 375.021C290.567 374.548 291.406 374.229 292.518 374.064C293.393 373.919 293.944 373.814 294.172 373.75V373.326C294.172 372.971 294.044 372.702 293.789 372.52C293.534 372.328 293.197 372.232 292.777 372.232C291.939 372.232 291.201 372.579 290.562 373.271L289.387 372.26C290.262 371.221 291.387 370.701 292.764 370.701C293.976 370.701 294.837 370.993 295.348 371.576C295.867 372.15 296.127 372.971 296.127 374.037V379H294.227V378.084C294.053 378.403 293.766 378.676 293.365 378.904C292.973 379.132 292.522 379.246 292.012 379.246C291.137 379.246 290.444 379.023 289.934 378.576C289.423 378.13 289.168 377.551 289.168 376.84ZM299.381 374.967C299.381 375.796 299.531 376.439 299.832 376.895C300.133 377.35 300.543 377.578 301.062 377.578C301.582 377.578 301.992 377.346 302.293 376.881C302.603 376.416 302.758 375.778 302.758 374.967C302.758 374.192 302.612 373.568 302.32 373.094C302.029 372.611 301.614 372.369 301.076 372.369C300.529 372.369 300.11 372.606 299.818 373.08C299.527 373.554 299.381 374.183 299.381 374.967ZM297.371 374.967C297.371 373.654 297.695 372.615 298.342 371.85C298.989 371.084 299.805 370.701 300.789 370.701C301.628 370.701 302.298 371.084 302.799 371.85V370.947H304.686V382.227H302.73V378.18C302.548 378.471 302.293 378.722 301.965 378.932C301.637 379.141 301.245 379.246 300.789 379.246C300.379 379.246 299.982 379.164 299.6 379C299.217 378.845 298.852 378.608 298.506 378.289C298.169 377.97 297.895 377.523 297.686 376.949C297.476 376.375 297.371 375.714 297.371 374.967ZM306.436 376.047V370.947H308.404V375.828C308.404 376.995 308.801 377.578 309.594 377.578C310.077 377.578 310.455 377.368 310.729 376.949C311.002 376.521 311.139 376.015 311.139 375.432V370.947H313.08V379H311.207V378.166H311.18C311.034 378.449 310.783 378.699 310.428 378.918C310.081 379.137 309.662 379.246 309.17 379.246C308.86 379.246 308.559 379.201 308.268 379.109C307.985 379.018 307.698 378.868 307.406 378.658C307.115 378.439 306.878 378.107 306.695 377.66C306.522 377.214 306.436 376.676 306.436 376.047ZM314.967 369.922V367.844H316.99V369.922H314.967ZM315.021 379V370.947H316.949V379H315.021ZM153.434 398.676C153.434 398.94 153.534 399.163 153.734 399.346C153.944 399.528 154.222 399.619 154.568 399.619C155.088 399.619 155.53 399.446 155.895 399.1C156.259 398.753 156.441 398.298 156.441 397.732V397.104C156.077 397.195 155.612 397.281 155.047 397.363C153.971 397.536 153.434 397.974 153.434 398.676ZM151.438 398.84C151.438 398.102 151.715 397.495 152.271 397.021C152.837 396.548 153.675 396.229 154.787 396.064C155.662 395.919 156.214 395.814 156.441 395.75V395.326C156.441 394.971 156.314 394.702 156.059 394.52C155.803 394.328 155.466 394.232 155.047 394.232C154.208 394.232 153.47 394.579 152.832 395.271L151.656 394.26C152.531 393.221 153.657 392.701 155.033 392.701C156.245 392.701 157.107 392.993 157.617 393.576C158.137 394.15 158.396 394.971 158.396 396.037V401H156.496V400.084C156.323 400.403 156.036 400.676 155.635 400.904C155.243 401.132 154.792 401.246 154.281 401.246C153.406 401.246 152.714 401.023 152.203 400.576C151.693 400.13 151.438 399.551 151.438 398.84ZM160.16 391.922V389.844H162.184V391.922H160.16ZM160.215 401V392.947H162.143V401H160.215ZM164.07 401V392.947H165.957V393.836C166.094 393.562 166.34 393.307 166.695 393.07C167.06 392.824 167.529 392.701 168.104 392.701C169.863 392.701 170.742 393.745 170.742 395.832V401H168.801V396.064C168.801 395.445 168.705 395.007 168.514 394.752C168.322 394.497 168.04 394.369 167.666 394.369C167.192 394.369 166.8 394.561 166.49 394.943C166.18 395.326 166.025 395.805 166.025 396.379V401H164.07ZM172 396.967C172 395.636 172.319 394.592 172.957 393.836C173.604 393.079 174.434 392.701 175.445 392.701C175.874 392.701 176.252 392.801 176.58 393.002C176.917 393.193 177.177 393.421 177.359 393.686V389.639H179.314V401H177.414V400.084C177.241 400.403 176.972 400.676 176.607 400.904C176.252 401.132 175.86 401.246 175.432 401.246C175.003 401.246 174.593 401.164 174.201 401C173.809 400.845 173.445 400.608 173.107 400.289C172.77 399.961 172.501 399.514 172.301 398.949C172.1 398.375 172 397.714 172 396.967ZM174.01 396.967C174.01 397.805 174.16 398.452 174.461 398.908C174.771 399.355 175.19 399.578 175.719 399.578C176.22 399.578 176.621 399.346 176.922 398.881C177.232 398.416 177.387 397.778 177.387 396.967C177.387 396.192 177.241 395.568 176.949 395.094C176.658 394.611 176.247 394.369 175.719 394.369C175.163 394.369 174.739 394.606 174.447 395.08C174.156 395.554 174.01 396.183 174.01 396.967ZM182.719 398.676C182.719 398.94 182.819 399.163 183.02 399.346C183.229 399.528 183.507 399.619 183.854 399.619C184.373 399.619 184.815 399.446 185.18 399.1C185.544 398.753 185.727 398.298 185.727 397.732V397.104C185.362 397.195 184.897 397.281 184.332 397.363C183.257 397.536 182.719 397.974 182.719 398.676ZM180.723 398.84C180.723 398.102 181.001 397.495 181.557 397.021C182.122 396.548 182.96 396.229 184.072 396.064C184.947 395.919 185.499 395.814 185.727 395.75V395.326C185.727 394.971 185.599 394.702 185.344 394.52C185.089 394.328 184.751 394.232 184.332 394.232C183.493 394.232 182.755 394.579 182.117 395.271L180.941 394.26C181.816 393.221 182.942 392.701 184.318 392.701C185.531 392.701 186.392 392.993 186.902 393.576C187.422 394.15 187.682 394.971 187.682 396.037V401H185.781V400.084C185.608 400.403 185.321 400.676 184.92 400.904C184.528 401.132 184.077 401.246 183.566 401.246C182.691 401.246 181.999 401.023 181.488 400.576C180.978 400.13 180.723 399.551 180.723 398.84ZM189.527 401.041V398.799H192.043V401.041H189.527ZM191.742 397.855H189.842L189.705 389.912H191.865L191.742 397.855ZM152.219 420V411.223H153.438L155.359 415.945C155.484 416.273 155.652 416.723 155.863 417.293C156.082 417.855 156.195 418.148 156.203 418.172H156.25C156.297 418.055 156.582 417.312 157.105 415.945L159.016 411.223H160.258V420H159.32V415.043C159.32 414.41 159.359 413.523 159.438 412.383H159.391L158.945 413.555L156.648 419.344H155.828L153.531 413.555L153.062 412.383H153.016C153.109 413.641 153.156 414.527 153.156 415.043V420H152.219ZM162.871 418.383C162.871 418.68 162.996 418.934 163.246 419.145C163.496 419.348 163.84 419.449 164.277 419.449C164.832 419.449 165.305 419.27 165.695 418.91C166.094 418.551 166.293 418.094 166.293 417.539V416.66C165.949 416.746 165.402 416.848 164.652 416.965C164.043 417.074 163.594 417.242 163.305 417.469C163.016 417.695 162.871 418 162.871 418.383ZM161.957 418.453C161.957 417.281 162.863 416.555 164.676 416.273C165.488 416.141 166.027 416.031 166.293 415.945V415.582C166.293 415.191 166.152 414.867 165.871 414.609C165.59 414.352 165.191 414.223 164.676 414.223C164.301 414.223 163.938 414.312 163.586 414.492C163.242 414.664 162.949 414.898 162.707 415.195L162.121 414.703C162.434 414.344 162.809 414.051 163.246 413.824C163.691 413.598 164.16 413.484 164.652 413.484C166.34 413.484 167.184 414.309 167.184 415.957V420H166.316V418.969C166.191 419.305 165.934 419.598 165.543 419.848C165.152 420.09 164.691 420.211 164.16 420.211C163.465 420.211 162.922 420.047 162.531 419.719C162.148 419.391 161.957 418.969 161.957 418.453ZM168.484 418.758L169.164 418.359C169.625 419.086 170.25 419.449 171.039 419.449C171.516 419.449 171.895 419.363 172.176 419.191C172.465 419.02 172.609 418.77 172.609 418.441C172.609 418.301 172.574 418.176 172.504 418.066C172.434 417.949 172.355 417.855 172.27 417.785C172.191 417.707 172.047 417.625 171.836 417.539C171.625 417.445 171.449 417.379 171.309 417.34C171.176 417.293 170.953 417.219 170.641 417.117C170.367 417.031 170.133 416.945 169.938 416.859C169.742 416.773 169.539 416.66 169.328 416.52C169.117 416.371 168.953 416.191 168.836 415.98C168.727 415.77 168.672 415.527 168.672 415.254C168.672 414.73 168.883 414.305 169.305 413.977C169.727 413.648 170.305 413.484 171.039 413.484C171.555 413.484 172.027 413.621 172.457 413.895C172.887 414.168 173.195 414.488 173.383 414.855L172.773 415.254C172.609 414.98 172.371 414.746 172.059 414.551C171.754 414.348 171.414 414.246 171.039 414.246C170.562 414.246 170.199 414.34 169.949 414.527C169.707 414.707 169.586 414.953 169.586 415.266C169.586 415.445 169.633 415.609 169.727 415.758C169.82 415.898 169.961 416.023 170.148 416.133C170.344 416.234 170.52 416.316 170.676 416.379C170.84 416.434 171.055 416.504 171.32 416.59C171.547 416.66 171.746 416.727 171.918 416.789C172.098 416.852 172.293 416.938 172.504 417.047C172.715 417.156 172.891 417.273 173.031 417.398C173.172 417.516 173.289 417.668 173.383 417.855C173.477 418.035 173.523 418.23 173.523 418.441C173.523 418.941 173.301 419.363 172.855 419.707C172.418 420.043 171.812 420.211 171.039 420.211C170.477 420.211 169.977 420.086 169.539 419.836C169.102 419.578 168.75 419.219 168.484 418.758ZM176.957 413.695H177.965L179.324 417.645C179.387 417.84 179.473 418.113 179.582 418.465C179.691 418.816 179.77 419.066 179.816 419.215H179.84C179.895 419.035 179.98 418.773 180.098 418.43C180.215 418.086 180.301 417.824 180.355 417.645L181.691 413.695H182.699L180.379 420H179.277L176.957 413.695ZM184.082 416.848C184.082 417.645 184.266 418.277 184.633 418.746C185 419.215 185.457 419.449 186.004 419.449C186.543 419.449 186.996 419.215 187.363 418.746C187.738 418.277 187.926 417.645 187.926 416.848C187.926 416.035 187.738 415.398 187.363 414.938C186.988 414.477 186.535 414.246 186.004 414.246C185.465 414.246 185.008 414.477 184.633 414.938C184.266 415.398 184.082 416.035 184.082 416.848ZM183.168 416.848C183.168 415.887 183.414 415.086 183.906 414.445C184.406 413.805 185.105 413.484 186.004 413.484C186.895 413.484 187.59 413.805 188.09 414.445C188.59 415.086 188.84 415.887 188.84 416.848C188.84 417.254 188.785 417.648 188.676 418.031C188.574 418.414 188.414 418.773 188.195 419.109C187.984 419.438 187.688 419.703 187.305 419.906C186.93 420.109 186.496 420.211 186.004 420.211C185.52 420.211 185.086 420.113 184.703 419.918C184.328 419.715 184.031 419.449 183.812 419.121C183.602 418.785 183.441 418.426 183.332 418.043C183.223 417.66 183.168 417.262 183.168 416.848ZM189.871 416.848C189.871 415.848 190.125 415.039 190.633 414.422C191.141 413.797 191.824 413.484 192.684 413.484C193.246 413.484 193.727 413.648 194.125 413.977C194.531 414.297 194.801 414.68 194.934 415.125L194.16 415.348C194.043 415.035 193.852 414.773 193.586 414.562C193.328 414.352 193.027 414.246 192.684 414.246C192.105 414.246 191.645 414.492 191.301 414.984C190.957 415.477 190.785 416.098 190.785 416.848C190.785 417.645 190.965 418.277 191.324 418.746C191.684 419.215 192.137 419.449 192.684 419.449C193.051 419.449 193.383 419.332 193.68 419.098C193.984 418.855 194.199 418.578 194.324 418.266L195.098 418.512C194.934 418.98 194.633 419.383 194.195 419.719C193.766 420.047 193.262 420.211 192.684 420.211C191.848 420.211 191.168 419.906 190.645 419.297C190.129 418.688 189.871 417.871 189.871 416.848ZM195.895 416.801C195.895 415.816 196.16 415.02 196.691 414.41C197.223 413.793 197.91 413.484 198.754 413.484C199.613 413.484 200.289 413.785 200.781 414.387C201.273 414.98 201.52 415.742 201.52 416.672C201.52 416.781 201.512 416.938 201.496 417.141H196.809C196.809 417.773 196.984 418.316 197.336 418.77C197.688 419.223 198.176 419.449 198.801 419.449C199.207 419.449 199.566 419.355 199.879 419.168C200.191 418.973 200.434 418.715 200.605 418.395L201.379 418.629C201.184 419.09 200.867 419.469 200.43 419.766C199.992 420.062 199.449 420.211 198.801 420.211C197.926 420.211 197.223 419.898 196.691 419.273C196.16 418.648 195.895 417.824 195.895 416.801ZM196.832 416.449H200.605C200.605 415.832 200.438 415.312 200.102 414.891C199.766 414.461 199.316 414.246 198.754 414.246C198.184 414.246 197.723 414.465 197.371 414.902C197.027 415.34 196.848 415.855 196.832 416.449ZM196.422 412.523L198.344 410.578H199.152L201.098 412.523H200.125L198.754 411.094L197.395 412.523H196.422ZM206.84 416.836C206.84 417.617 207 418.25 207.32 418.734C207.641 419.211 208.082 419.449 208.645 419.449C209.176 419.449 209.617 419.215 209.969 418.746C210.32 418.277 210.496 417.641 210.496 416.836C210.496 416.078 210.328 415.457 209.992 414.973C209.664 414.488 209.215 414.246 208.645 414.246C208.113 414.246 207.68 414.492 207.344 414.984C207.008 415.469 206.84 416.086 206.84 416.836ZM205.949 422.754V413.695H206.816V414.832C206.996 414.426 207.254 414.102 207.59 413.859C207.934 413.609 208.324 413.484 208.762 413.484C209.527 413.484 210.16 413.789 210.66 414.398C211.16 415.008 211.41 415.82 211.41 416.836C211.41 417.922 211.148 418.758 210.625 419.344C210.102 419.922 209.48 420.211 208.762 420.211C208.293 420.211 207.895 420.09 207.566 419.848C207.238 419.598 206.996 419.285 206.84 418.91V422.754H205.949ZM213.355 416.848C213.355 417.645 213.539 418.277 213.906 418.746C214.273 419.215 214.73 419.449 215.277 419.449C215.816 419.449 216.27 419.215 216.637 418.746C217.012 418.277 217.199 417.645 217.199 416.848C217.199 416.035 217.012 415.398 216.637 414.938C216.262 414.477 215.809 414.246 215.277 414.246C214.738 414.246 214.281 414.477 213.906 414.938C213.539 415.398 213.355 416.035 213.355 416.848ZM212.441 416.848C212.441 415.887 212.688 415.086 213.18 414.445C213.68 413.805 214.379 413.484 215.277 413.484C216.168 413.484 216.863 413.805 217.363 414.445C217.863 415.086 218.113 415.887 218.113 416.848C218.113 417.254 218.059 417.648 217.949 418.031C217.848 418.414 217.688 418.773 217.469 419.109C217.258 419.438 216.961 419.703 216.578 419.906C216.203 420.109 215.77 420.211 215.277 420.211C214.793 420.211 214.359 420.113 213.977 419.918C213.602 419.715 213.305 419.449 213.086 419.121C212.875 418.785 212.715 418.426 212.605 418.043C212.496 417.66 212.441 417.262 212.441 416.848ZM219.145 416.836C219.145 415.797 219.395 414.98 219.895 414.387C220.395 413.785 221.027 413.484 221.793 413.484C222.254 413.484 222.652 413.617 222.988 413.883C223.332 414.148 223.574 414.453 223.715 414.797V410.895H224.605V420H223.738V418.863C223.574 419.254 223.32 419.578 222.977 419.836C222.641 420.086 222.246 420.211 221.793 420.211C221.473 420.211 221.16 420.145 220.855 420.012C220.559 419.887 220.277 419.699 220.012 419.449C219.754 419.191 219.543 418.84 219.379 418.395C219.223 417.941 219.145 417.422 219.145 416.836ZM220.059 416.836C220.059 417.625 220.23 418.258 220.574 418.734C220.918 419.211 221.363 419.449 221.91 419.449C222.418 419.449 222.848 419.215 223.199 418.746C223.559 418.27 223.738 417.633 223.738 416.836C223.738 416.047 223.559 415.418 223.199 414.949C222.848 414.48 222.418 414.246 221.91 414.246C221.355 414.246 220.906 414.484 220.562 414.961C220.227 415.43 220.059 416.055 220.059 416.836ZM226.129 416.801C226.129 415.816 226.395 415.02 226.926 414.41C227.457 413.793 228.145 413.484 228.988 413.484C229.848 413.484 230.523 413.785 231.016 414.387C231.508 414.98 231.754 415.742 231.754 416.672C231.754 416.781 231.746 416.938 231.73 417.141H227.043C227.043 417.773 227.219 418.316 227.57 418.77C227.922 419.223 228.41 419.449 229.035 419.449C229.441 419.449 229.801 419.355 230.113 419.168C230.426 418.973 230.668 418.715 230.84 418.395L231.613 418.629C231.418 419.09 231.102 419.469 230.664 419.766C230.227 420.062 229.684 420.211 229.035 420.211C228.16 420.211 227.457 419.898 226.926 419.273C226.395 418.648 226.129 417.824 226.129 416.801ZM227.066 416.449H230.84C230.84 415.832 230.672 415.312 230.336 414.891C230 414.461 229.551 414.246 228.988 414.246C228.418 414.246 227.957 414.465 227.605 414.902C227.262 415.34 227.082 415.855 227.066 416.449ZM236.113 420V413.695H237.004V414.773H237.016C237.109 414.461 237.34 414.168 237.707 413.895C238.074 413.621 238.512 413.484 239.02 413.484C239.605 413.484 240.086 413.668 240.461 414.035C240.844 414.402 241.035 415.031 241.035 415.922V420H240.121V416.074C240.121 414.855 239.684 414.246 238.809 414.246C238.324 414.246 237.906 414.441 237.555 414.832C237.203 415.223 237.027 415.691 237.027 416.238V420H236.113ZM243.309 418.383C243.309 418.68 243.434 418.934 243.684 419.145C243.934 419.348 244.277 419.449 244.715 419.449C245.27 419.449 245.742 419.27 246.133 418.91C246.531 418.551 246.73 418.094 246.73 417.539V416.66C246.387 416.746 245.84 416.848 245.09 416.965C244.48 417.074 244.031 417.242 243.742 417.469C243.453 417.695 243.309 418 243.309 418.383ZM242.395 418.453C242.395 417.281 243.301 416.555 245.113 416.273C245.926 416.141 246.465 416.031 246.73 415.945V415.582C246.73 415.191 246.59 414.867 246.309 414.609C246.027 414.352 245.629 414.223 245.113 414.223C244.738 414.223 244.375 414.312 244.023 414.492C243.68 414.664 243.387 414.898 243.145 415.195L242.559 414.703C242.871 414.344 243.246 414.051 243.684 413.824C244.129 413.598 244.598 413.484 245.09 413.484C246.777 413.484 247.621 414.309 247.621 415.957V420H246.754V418.969C246.629 419.305 246.371 419.598 245.98 419.848C245.59 420.09 245.129 420.211 244.598 420.211C243.902 420.211 243.359 420.047 242.969 419.719C242.586 419.391 242.395 418.969 242.395 418.453ZM248.594 413.695H249.602L250.961 417.645C251.023 417.84 251.109 418.113 251.219 418.465C251.328 418.816 251.406 419.066 251.453 419.215H251.477C251.531 419.035 251.617 418.773 251.734 418.43C251.852 418.086 251.938 417.824 251.992 417.645L253.328 413.695H254.336L252.016 420H250.914L248.594 413.695ZM254.805 416.801C254.805 415.816 255.07 415.02 255.602 414.41C256.133 413.793 256.82 413.484 257.664 413.484C258.523 413.484 259.199 413.785 259.691 414.387C260.184 414.98 260.43 415.742 260.43 416.672C260.43 416.781 260.422 416.938 260.406 417.141H255.719C255.719 417.773 255.895 418.316 256.246 418.77C256.598 419.223 257.086 419.449 257.711 419.449C258.117 419.449 258.477 419.355 258.789 419.168C259.102 418.973 259.344 418.715 259.516 418.395L260.289 418.629C260.094 419.09 259.777 419.469 259.34 419.766C258.902 420.062 258.359 420.211 257.711 420.211C256.836 420.211 256.133 419.898 255.602 419.273C255.07 418.648 254.805 417.824 254.805 416.801ZM255.742 416.449H259.516C259.516 415.832 259.348 415.312 259.012 414.891C258.676 414.461 258.227 414.246 257.664 414.246C257.094 414.246 256.633 414.465 256.281 414.902C255.938 415.34 255.758 415.855 255.742 416.449ZM262.352 416.73C262.352 417.473 262.516 418.074 262.844 418.535C263.172 418.988 263.602 419.215 264.133 419.215C264.672 419.215 265.098 418.996 265.41 418.559C265.73 418.121 265.891 417.508 265.891 416.719C265.891 415.953 265.727 415.352 265.398 414.914C265.078 414.469 264.664 414.246 264.156 414.246C263.609 414.246 263.172 414.48 262.844 414.949C262.516 415.41 262.352 416.004 262.352 416.73ZM261.438 416.742C261.438 415.766 261.68 414.98 262.164 414.387C262.648 413.785 263.273 413.484 264.039 413.484C264.523 413.484 264.918 413.609 265.223 413.859C265.535 414.109 265.758 414.398 265.891 414.727V413.695H266.781V419.262C266.781 420.457 266.566 421.344 266.137 421.922C265.715 422.508 265.039 422.801 264.109 422.801C263.102 422.801 262.32 422.418 261.766 421.652L262.398 421.242C262.883 421.789 263.461 422.062 264.133 422.062C264.688 422.062 265.117 421.844 265.422 421.406C265.734 420.977 265.891 420.398 265.891 419.672V418.77C265.727 419.121 265.488 419.41 265.176 419.637C264.871 419.863 264.5 419.977 264.062 419.977C263.266 419.977 262.629 419.676 262.152 419.074C261.676 418.465 261.438 417.688 261.438 416.742ZM269.16 418.383C269.16 418.68 269.285 418.934 269.535 419.145C269.785 419.348 270.129 419.449 270.566 419.449C271.121 419.449 271.594 419.27 271.984 418.91C272.383 418.551 272.582 418.094 272.582 417.539V416.66C272.238 416.746 271.691 416.848 270.941 416.965C270.332 417.074 269.883 417.242 269.594 417.469C269.305 417.695 269.16 418 269.16 418.383ZM268.246 418.453C268.246 417.281 269.152 416.555 270.965 416.273C271.777 416.141 272.316 416.031 272.582 415.945V415.582C272.582 415.191 272.441 414.867 272.16 414.609C271.879 414.352 271.48 414.223 270.965 414.223C270.59 414.223 270.227 414.312 269.875 414.492C269.531 414.664 269.238 414.898 268.996 415.195L268.41 414.703C268.723 414.344 269.098 414.051 269.535 413.824C269.98 413.598 270.449 413.484 270.941 413.484C272.629 413.484 273.473 414.309 273.473 415.957V420H272.605V418.969C272.48 419.305 272.223 419.598 271.832 419.848C271.441 420.09 270.98 420.211 270.449 420.211C269.754 420.211 269.211 420.047 268.82 419.719C268.438 419.391 268.246 418.969 268.246 418.453ZM275.289 420V413.695H276.156V414.609C276.281 414.328 276.488 414.07 276.777 413.836C277.066 413.602 277.438 413.484 277.891 413.484C278.227 413.484 278.523 413.539 278.781 413.648V414.469C278.5 414.359 278.203 414.305 277.891 414.305C277.359 414.305 276.945 414.504 276.648 414.902C276.352 415.301 276.203 415.828 276.203 416.484V420H275.289ZM283.574 416.836C283.574 417.617 283.734 418.25 284.055 418.734C284.375 419.211 284.816 419.449 285.379 419.449C285.91 419.449 286.352 419.215 286.703 418.746C287.055 418.277 287.23 417.641 287.23 416.836C287.23 416.078 287.062 415.457 286.727 414.973C286.398 414.488 285.949 414.246 285.379 414.246C284.848 414.246 284.414 414.492 284.078 414.984C283.742 415.469 283.574 416.086 283.574 416.836ZM282.684 422.754V413.695H283.551V414.832C283.73 414.426 283.988 414.102 284.324 413.859C284.668 413.609 285.059 413.484 285.496 413.484C286.262 413.484 286.895 413.789 287.395 414.398C287.895 415.008 288.145 415.82 288.145 416.836C288.145 417.922 287.883 418.758 287.359 419.344C286.836 419.922 286.215 420.211 285.496 420.211C285.027 420.211 284.629 420.09 284.301 419.848C283.973 419.598 283.73 419.285 283.574 418.91V422.754H282.684ZM290.09 416.848C290.09 417.645 290.273 418.277 290.641 418.746C291.008 419.215 291.465 419.449 292.012 419.449C292.551 419.449 293.004 419.215 293.371 418.746C293.746 418.277 293.934 417.645 293.934 416.848C293.934 416.035 293.746 415.398 293.371 414.938C292.996 414.477 292.543 414.246 292.012 414.246C291.473 414.246 291.016 414.477 290.641 414.938C290.273 415.398 290.09 416.035 290.09 416.848ZM289.176 416.848C289.176 415.887 289.422 415.086 289.914 414.445C290.414 413.805 291.113 413.484 292.012 413.484C292.902 413.484 293.598 413.805 294.098 414.445C294.598 415.086 294.848 415.887 294.848 416.848C294.848 417.254 294.793 417.648 294.684 418.031C294.582 418.414 294.422 418.773 294.203 419.109C293.992 419.438 293.695 419.703 293.312 419.906C292.938 420.109 292.504 420.211 292.012 420.211C291.527 420.211 291.094 420.113 290.711 419.918C290.336 419.715 290.039 419.449 289.82 419.121C289.609 418.785 289.449 418.426 289.34 418.043C289.23 417.66 289.176 417.262 289.176 416.848ZM296.301 420V413.695H297.168V414.609C297.293 414.328 297.5 414.07 297.789 413.836C298.078 413.602 298.449 413.484 298.902 413.484C299.238 413.484 299.535 413.539 299.793 413.648V414.469C299.512 414.359 299.215 414.305 298.902 414.305C298.371 414.305 297.957 414.504 297.66 414.902C297.363 415.301 297.215 415.828 297.215 416.484V420H296.301ZM303.625 420V413.695H304.516V414.773H304.527C304.621 414.461 304.852 414.168 305.219 413.895C305.586 413.621 306.023 413.484 306.531 413.484C307.117 413.484 307.598 413.668 307.973 414.035C308.355 414.402 308.547 415.031 308.547 415.922V420H307.633V416.074C307.633 414.855 307.195 414.246 306.32 414.246C305.836 414.246 305.418 414.441 305.066 414.832C304.715 415.223 304.539 415.691 304.539 416.238V420H303.625ZM310.844 416.848C310.844 417.645 311.027 418.277 311.395 418.746C311.762 419.215 312.219 419.449 312.766 419.449C313.305 419.449 313.758 419.215 314.125 418.746C314.5 418.277 314.688 417.645 314.688 416.848C314.688 416.035 314.5 415.398 314.125 414.938C313.75 414.477 313.297 414.246 312.766 414.246C312.227 414.246 311.77 414.477 311.395 414.938C311.027 415.398 310.844 416.035 310.844 416.848ZM309.93 416.848C309.93 415.887 310.176 415.086 310.668 414.445C311.168 413.805 311.867 413.484 312.766 413.484C313.656 413.484 314.352 413.805 314.852 414.445C315.352 415.086 315.602 415.887 315.602 416.848C315.602 417.254 315.547 417.648 315.438 418.031C315.336 418.414 315.176 418.773 314.957 419.109C314.746 419.438 314.449 419.703 314.066 419.906C313.691 420.109 313.258 420.211 312.766 420.211C312.281 420.211 311.848 420.113 311.465 419.918C311.09 419.715 310.793 419.449 310.574 419.121C310.363 418.785 310.203 418.426 310.094 418.043C309.984 417.66 309.93 417.262 309.93 416.848ZM316.539 418.758L317.219 418.359C317.68 419.086 318.305 419.449 319.094 419.449C319.57 419.449 319.949 419.363 320.23 419.191C320.52 419.02 320.664 418.77 320.664 418.441C320.664 418.301 320.629 418.176 320.559 418.066C320.488 417.949 320.41 417.855 320.324 417.785C320.246 417.707 320.102 417.625 319.891 417.539C319.68 417.445 319.504 417.379 319.363 417.34C319.23 417.293 319.008 417.219 318.695 417.117C318.422 417.031 318.188 416.945 317.992 416.859C317.797 416.773 317.594 416.66 317.383 416.52C317.172 416.371 317.008 416.191 316.891 415.98C316.781 415.77 316.727 415.527 316.727 415.254C316.727 414.73 316.938 414.305 317.359 413.977C317.781 413.648 318.359 413.484 319.094 413.484C319.609 413.484 320.082 413.621 320.512 413.895C320.941 414.168 321.25 414.488 321.438 414.855L320.828 415.254C320.664 414.98 320.426 414.746 320.113 414.551C319.809 414.348 319.469 414.246 319.094 414.246C318.617 414.246 318.254 414.34 318.004 414.527C317.762 414.707 317.641 414.953 317.641 415.266C317.641 415.445 317.688 415.609 317.781 415.758C317.875 415.898 318.016 416.023 318.203 416.133C318.398 416.234 318.574 416.316 318.73 416.379C318.895 416.434 319.109 416.504 319.375 416.59C319.602 416.66 319.801 416.727 319.973 416.789C320.152 416.852 320.348 416.938 320.559 417.047C320.77 417.156 320.945 417.273 321.086 417.398C321.227 417.516 321.344 417.668 321.438 417.855C321.531 418.035 321.578 418.23 321.578 418.441C321.578 418.941 321.355 419.363 320.91 419.707C320.473 420.043 319.867 420.211 319.094 420.211C318.531 420.211 318.031 420.086 317.594 419.836C317.156 419.578 316.805 419.219 316.539 418.758ZM322.41 418.758L323.09 418.359C323.551 419.086 324.176 419.449 324.965 419.449C325.441 419.449 325.82 419.363 326.102 419.191C326.391 419.02 326.535 418.77 326.535 418.441C326.535 418.301 326.5 418.176 326.43 418.066C326.359 417.949 326.281 417.855 326.195 417.785C326.117 417.707 325.973 417.625 325.762 417.539C325.551 417.445 325.375 417.379 325.234 417.34C325.102 417.293 324.879 417.219 324.566 417.117C324.293 417.031 324.059 416.945 323.863 416.859C323.668 416.773 323.465 416.66 323.254 416.52C323.043 416.371 322.879 416.191 322.762 415.98C322.652 415.77 322.598 415.527 322.598 415.254C322.598 414.73 322.809 414.305 323.23 413.977C323.652 413.648 324.23 413.484 324.965 413.484C325.48 413.484 325.953 413.621 326.383 413.895C326.812 414.168 327.121 414.488 327.309 414.855L326.699 415.254C326.535 414.98 326.297 414.746 325.984 414.551C325.68 414.348 325.34 414.246 324.965 414.246C324.488 414.246 324.125 414.34 323.875 414.527C323.633 414.707 323.512 414.953 323.512 415.266C323.512 415.445 323.559 415.609 323.652 415.758C323.746 415.898 323.887 416.023 324.074 416.133C324.27 416.234 324.445 416.316 324.602 416.379C324.766 416.434 324.98 416.504 325.246 416.59C325.473 416.66 325.672 416.727 325.844 416.789C326.023 416.852 326.219 416.938 326.43 417.047C326.641 417.156 326.816 417.273 326.957 417.398C327.098 417.516 327.215 417.668 327.309 417.855C327.402 418.035 327.449 418.23 327.449 418.441C327.449 418.941 327.227 419.363 326.781 419.707C326.344 420.043 325.738 420.211 324.965 420.211C324.402 420.211 323.902 420.086 323.465 419.836C323.027 419.578 322.676 419.219 322.41 418.758ZM329.289 416.848C329.289 417.645 329.473 418.277 329.84 418.746C330.207 419.215 330.664 419.449 331.211 419.449C331.75 419.449 332.203 419.215 332.57 418.746C332.945 418.277 333.133 417.645 333.133 416.848C333.133 416.035 332.945 415.398 332.57 414.938C332.195 414.477 331.742 414.246 331.211 414.246C330.672 414.246 330.215 414.477 329.84 414.938C329.473 415.398 329.289 416.035 329.289 416.848ZM328.375 416.848C328.375 415.887 328.621 415.086 329.113 414.445C329.613 413.805 330.312 413.484 331.211 413.484C332.102 413.484 332.797 413.805 333.297 414.445C333.797 415.086 334.047 415.887 334.047 416.848C334.047 417.254 333.992 417.648 333.883 418.031C333.781 418.414 333.621 418.773 333.402 419.109C333.191 419.438 332.895 419.703 332.512 419.906C332.137 420.109 331.703 420.211 331.211 420.211C330.727 420.211 330.293 420.113 329.91 419.918C329.535 419.715 329.238 419.449 329.02 419.121C328.809 418.785 328.648 418.426 328.539 418.043C328.43 417.66 328.375 417.262 328.375 416.848ZM334.984 418.758L335.664 418.359C336.125 419.086 336.75 419.449 337.539 419.449C338.016 419.449 338.395 419.363 338.676 419.191C338.965 419.02 339.109 418.77 339.109 418.441C339.109 418.301 339.074 418.176 339.004 418.066C338.934 417.949 338.855 417.855 338.77 417.785C338.691 417.707 338.547 417.625 338.336 417.539C338.125 417.445 337.949 417.379 337.809 417.34C337.676 417.293 337.453 417.219 337.141 417.117C336.867 417.031 336.633 416.945 336.438 416.859C336.242 416.773 336.039 416.66 335.828 416.52C335.617 416.371 335.453 416.191 335.336 415.98C335.227 415.77 335.172 415.527 335.172 415.254C335.172 414.73 335.383 414.305 335.805 413.977C336.227 413.648 336.805 413.484 337.539 413.484C338.055 413.484 338.527 413.621 338.957 413.895C339.387 414.168 339.695 414.488 339.883 414.855L339.273 415.254C339.109 414.98 338.871 414.746 338.559 414.551C338.254 414.348 337.914 414.246 337.539 414.246C337.062 414.246 336.699 414.34 336.449 414.527C336.207 414.707 336.086 414.953 336.086 415.266C336.086 415.445 336.133 415.609 336.227 415.758C336.32 415.898 336.461 416.023 336.648 416.133C336.844 416.234 337.02 416.316 337.176 416.379C337.34 416.434 337.555 416.504 337.82 416.59C338.047 416.66 338.246 416.727 338.418 416.789C338.598 416.852 338.793 416.938 339.004 417.047C339.215 417.156 339.391 417.273 339.531 417.398C339.672 417.516 339.789 417.668 339.883 417.855C339.977 418.035 340.023 418.23 340.023 418.441C340.023 418.941 339.801 419.363 339.355 419.707C338.918 420.043 338.312 420.211 337.539 420.211C336.977 420.211 336.477 420.086 336.039 419.836C335.602 419.578 335.25 419.219 334.984 418.758ZM152.43 435.848C152.43 436.645 152.613 437.277 152.98 437.746C153.348 438.215 153.805 438.449 154.352 438.449C154.891 438.449 155.344 438.215 155.711 437.746C156.086 437.277 156.273 436.645 156.273 435.848C156.273 435.035 156.086 434.398 155.711 433.938C155.336 433.477 154.883 433.246 154.352 433.246C153.812 433.246 153.355 433.477 152.98 433.938C152.613 434.398 152.43 435.035 152.43 435.848ZM151.516 435.848C151.516 434.887 151.762 434.086 152.254 433.445C152.754 432.805 153.453 432.484 154.352 432.484C155.242 432.484 155.938 432.805 156.438 433.445C156.938 434.086 157.188 434.887 157.188 435.848C157.188 436.254 157.133 436.648 157.023 437.031C156.922 437.414 156.762 437.773 156.543 438.109C156.332 438.438 156.035 438.703 155.652 438.906C155.277 439.109 154.844 439.211 154.352 439.211C153.867 439.211 153.434 439.113 153.051 438.918C152.676 438.715 152.379 438.449 152.16 438.121C151.949 437.785 151.789 437.426 151.68 437.043C151.57 436.66 151.516 436.262 151.516 435.848ZM158.57 436.785V432.695H159.484V436.598C159.484 437.832 159.938 438.449 160.844 438.449C161.398 438.449 161.82 438.234 162.109 437.805C162.406 437.375 162.555 436.867 162.555 436.281V432.695H163.445V439H162.578V437.98C162.516 438.238 162.32 438.508 161.992 438.789C161.672 439.07 161.219 439.211 160.633 439.211C160.031 439.211 159.535 439.008 159.145 438.602C158.762 438.188 158.57 437.582 158.57 436.785ZM164.629 433.457V432.695H165.73V430.68H166.645V432.695H168.309V433.457H166.645V437.148C166.645 437.539 166.719 437.816 166.867 437.98C167.016 438.145 167.254 438.227 167.582 438.227H168.309V439H167.465C166.309 439 165.73 438.41 165.73 437.23V433.457H164.629ZM169.609 439V432.695H170.477V433.609C170.602 433.328 170.809 433.07 171.098 432.836C171.387 432.602 171.758 432.484 172.211 432.484C172.547 432.484 172.844 432.539 173.102 432.648V433.469C172.82 433.359 172.523 433.305 172.211 433.305C171.68 433.305 171.266 433.504 170.969 433.902C170.672 434.301 170.523 434.828 170.523 435.484V439H169.609ZM174.496 435.848C174.496 436.645 174.68 437.277 175.047 437.746C175.414 438.215 175.871 438.449 176.418 438.449C176.957 438.449 177.41 438.215 177.777 437.746C178.152 437.277 178.34 436.645 178.34 435.848C178.34 435.035 178.152 434.398 177.777 433.938C177.402 433.477 176.949 433.246 176.418 433.246C175.879 433.246 175.422 433.477 175.047 433.938C174.68 434.398 174.496 435.035 174.496 435.848ZM173.582 435.848C173.582 434.887 173.828 434.086 174.32 433.445C174.82 432.805 175.52 432.484 176.418 432.484C177.309 432.484 178.004 432.805 178.504 433.445C179.004 434.086 179.254 434.887 179.254 435.848C179.254 436.254 179.199 436.648 179.09 437.031C178.988 437.414 178.828 437.773 178.609 438.109C178.398 438.438 178.102 438.703 177.719 438.906C177.344 439.109 176.91 439.211 176.418 439.211C175.934 439.211 175.5 439.113 175.117 438.918C174.742 438.715 174.445 438.449 174.227 438.121C174.016 437.785 173.855 437.426 173.746 437.043C173.637 436.66 173.582 436.262 173.582 435.848ZM180.191 437.758L180.871 437.359C181.332 438.086 181.957 438.449 182.746 438.449C183.223 438.449 183.602 438.363 183.883 438.191C184.172 438.02 184.316 437.77 184.316 437.441C184.316 437.301 184.281 437.176 184.211 437.066C184.141 436.949 184.062 436.855 183.977 436.785C183.898 436.707 183.754 436.625 183.543 436.539C183.332 436.445 183.156 436.379 183.016 436.34C182.883 436.293 182.66 436.219 182.348 436.117C182.074 436.031 181.84 435.945 181.645 435.859C181.449 435.773 181.246 435.66 181.035 435.52C180.824 435.371 180.66 435.191 180.543 434.98C180.434 434.77 180.379 434.527 180.379 434.254C180.379 433.73 180.59 433.305 181.012 432.977C181.434 432.648 182.012 432.484 182.746 432.484C183.262 432.484 183.734 432.621 184.164 432.895C184.594 433.168 184.902 433.488 185.09 433.855L184.48 434.254C184.316 433.98 184.078 433.746 183.766 433.551C183.461 433.348 183.121 433.246 182.746 433.246C182.27 433.246 181.906 433.34 181.656 433.527C181.414 433.707 181.293 433.953 181.293 434.266C181.293 434.445 181.34 434.609 181.434 434.758C181.527 434.898 181.668 435.023 181.855 435.133C182.051 435.234 182.227 435.316 182.383 435.379C182.547 435.434 182.762 435.504 183.027 435.59C183.254 435.66 183.453 435.727 183.625 435.789C183.805 435.852 184 435.938 184.211 436.047C184.422 436.156 184.598 436.273 184.738 436.398C184.879 436.516 184.996 436.668 185.09 436.855C185.184 437.035 185.23 437.23 185.23 437.441C185.23 437.941 185.008 438.363 184.562 438.707C184.125 439.043 183.52 439.211 182.746 439.211C182.184 439.211 181.684 439.086 181.246 438.836C180.809 438.578 180.457 438.219 180.191 437.758ZM189.086 435.848C189.086 434.848 189.34 434.039 189.848 433.422C190.355 432.797 191.039 432.484 191.898 432.484C192.461 432.484 192.941 432.648 193.34 432.977C193.746 433.297 194.016 433.68 194.148 434.125L193.375 434.348C193.258 434.035 193.066 433.773 192.801 433.562C192.543 433.352 192.242 433.246 191.898 433.246C191.32 433.246 190.859 433.492 190.516 433.984C190.172 434.477 190 435.098 190 435.848C190 436.645 190.18 437.277 190.539 437.746C190.898 438.215 191.352 438.449 191.898 438.449C192.266 438.449 192.598 438.332 192.895 438.098C193.199 437.855 193.414 437.578 193.539 437.266L194.312 437.512C194.148 437.98 193.848 438.383 193.41 438.719C192.98 439.047 192.477 439.211 191.898 439.211C191.062 439.211 190.383 438.906 189.859 438.297C189.344 437.688 189.086 436.871 189.086 435.848ZM196.023 435.848C196.023 436.645 196.207 437.277 196.574 437.746C196.941 438.215 197.398 438.449 197.945 438.449C198.484 438.449 198.938 438.215 199.305 437.746C199.68 437.277 199.867 436.645 199.867 435.848C199.867 435.035 199.68 434.398 199.305 433.938C198.93 433.477 198.477 433.246 197.945 433.246C197.406 433.246 196.949 433.477 196.574 433.938C196.207 434.398 196.023 435.035 196.023 435.848ZM195.109 435.848C195.109 434.887 195.355 434.086 195.848 433.445C196.348 432.805 197.047 432.484 197.945 432.484C198.836 432.484 199.531 432.805 200.031 433.445C200.531 434.086 200.781 434.887 200.781 435.848C200.781 436.254 200.727 436.648 200.617 437.031C200.516 437.414 200.355 437.773 200.137 438.109C199.926 438.438 199.629 438.703 199.246 438.906C198.871 439.109 198.438 439.211 197.945 439.211C197.461 439.211 197.027 439.113 196.645 438.918C196.27 438.715 195.973 438.449 195.754 438.121C195.543 437.785 195.383 437.426 195.273 437.043C195.164 436.66 195.109 436.262 195.109 435.848ZM202.234 439V432.695H203.125V433.773H203.137C203.23 433.461 203.461 433.168 203.828 432.895C204.195 432.621 204.633 432.484 205.141 432.484C205.727 432.484 206.207 432.668 206.582 433.035C206.965 433.402 207.156 434.031 207.156 434.922V439H206.242V435.074C206.242 433.855 205.805 433.246 204.93 433.246C204.445 433.246 204.027 433.441 203.676 433.832C203.324 434.223 203.148 434.691 203.148 435.238V439H202.234ZM208.199 433.457V432.695H209.301V430.68H210.215V432.695H211.879V433.457H210.215V437.148C210.215 437.539 210.289 437.816 210.438 437.98C210.586 438.145 210.824 438.227 211.152 438.227H211.879V439H211.035C209.879 439 209.301 438.41 209.301 437.23V433.457H208.199ZM212.758 435.801C212.758 434.816 213.023 434.02 213.555 433.41C214.086 432.793 214.773 432.484 215.617 432.484C216.477 432.484 217.152 432.785 217.645 433.387C218.137 433.98 218.383 434.742 218.383 435.672C218.383 435.781 218.375 435.938 218.359 436.141H213.672C213.672 436.773 213.848 437.316 214.199 437.77C214.551 438.223 215.039 438.449 215.664 438.449C216.07 438.449 216.43 438.355 216.742 438.168C217.055 437.973 217.297 437.715 217.469 437.395L218.242 437.629C218.047 438.09 217.73 438.469 217.293 438.766C216.855 439.062 216.312 439.211 215.664 439.211C214.789 439.211 214.086 438.898 213.555 438.273C213.023 437.648 212.758 436.824 212.758 435.801ZM213.695 435.449H217.469C217.469 434.832 217.301 434.312 216.965 433.891C216.629 433.461 216.18 433.246 215.617 433.246C215.047 433.246 214.586 433.465 214.234 433.902C213.891 434.34 213.711 434.855 213.695 435.449ZM219.742 436.785V432.695H220.656V436.598C220.656 437.832 221.109 438.449 222.016 438.449C222.57 438.449 222.992 438.234 223.281 437.805C223.578 437.375 223.727 436.867 223.727 436.281V432.695H224.617V439H223.75V437.98C223.688 438.238 223.492 438.508 223.164 438.789C222.844 439.07 222.391 439.211 221.805 439.211C221.203 439.211 220.707 439.008 220.316 438.602C219.934 438.188 219.742 437.582 219.742 436.785ZM221.383 431.523L222.707 429.473H223.891L222.18 431.523H221.383ZM226.082 435.836C226.082 434.797 226.332 433.98 226.832 433.387C227.332 432.785 227.965 432.484 228.73 432.484C229.191 432.484 229.59 432.617 229.926 432.883C230.27 433.148 230.512 433.453 230.652 433.797V429.895H231.543V439H230.676V437.863C230.512 438.254 230.258 438.578 229.914 438.836C229.578 439.086 229.184 439.211 228.73 439.211C228.41 439.211 228.098 439.145 227.793 439.012C227.496 438.887 227.215 438.699 226.949 438.449C226.691 438.191 226.48 437.84 226.316 437.395C226.16 436.941 226.082 436.422 226.082 435.836ZM226.996 435.836C226.996 436.625 227.168 437.258 227.512 437.734C227.855 438.211 228.301 438.449 228.848 438.449C229.355 438.449 229.785 438.215 230.137 437.746C230.496 437.27 230.676 436.633 230.676 435.836C230.676 435.047 230.496 434.418 230.137 433.949C229.785 433.48 229.355 433.246 228.848 433.246C228.293 433.246 227.844 433.484 227.5 433.961C227.164 434.43 226.996 435.055 226.996 435.836ZM233.98 435.848C233.98 436.645 234.164 437.277 234.531 437.746C234.898 438.215 235.355 438.449 235.902 438.449C236.441 438.449 236.895 438.215 237.262 437.746C237.637 437.277 237.824 436.645 237.824 435.848C237.824 435.035 237.637 434.398 237.262 433.938C236.887 433.477 236.434 433.246 235.902 433.246C235.363 433.246 234.906 433.477 234.531 433.938C234.164 434.398 233.98 435.035 233.98 435.848ZM233.066 435.848C233.066 434.887 233.312 434.086 233.805 433.445C234.305 432.805 235.004 432.484 235.902 432.484C236.793 432.484 237.488 432.805 237.988 433.445C238.488 434.086 238.738 434.887 238.738 435.848C238.738 436.254 238.684 436.648 238.574 437.031C238.473 437.414 238.312 437.773 238.094 438.109C237.883 438.438 237.586 438.703 237.203 438.906C236.828 439.109 236.395 439.211 235.902 439.211C235.418 439.211 234.984 439.113 234.602 438.918C234.227 438.715 233.93 438.449 233.711 438.121C233.5 437.785 233.34 437.426 233.23 437.043C233.121 436.66 233.066 436.262 233.066 435.848ZM239.676 437.758L240.355 437.359C240.816 438.086 241.441 438.449 242.23 438.449C242.707 438.449 243.086 438.363 243.367 438.191C243.656 438.02 243.801 437.77 243.801 437.441C243.801 437.301 243.766 437.176 243.695 437.066C243.625 436.949 243.547 436.855 243.461 436.785C243.383 436.707 243.238 436.625 243.027 436.539C242.816 436.445 242.641 436.379 242.5 436.34C242.367 436.293 242.145 436.219 241.832 436.117C241.559 436.031 241.324 435.945 241.129 435.859C240.934 435.773 240.73 435.66 240.52 435.52C240.309 435.371 240.145 435.191 240.027 434.98C239.918 434.77 239.863 434.527 239.863 434.254C239.863 433.73 240.074 433.305 240.496 432.977C240.918 432.648 241.496 432.484 242.23 432.484C242.746 432.484 243.219 432.621 243.648 432.895C244.078 433.168 244.387 433.488 244.574 433.855L243.965 434.254C243.801 433.98 243.562 433.746 243.25 433.551C242.945 433.348 242.605 433.246 242.23 433.246C241.754 433.246 241.391 433.34 241.141 433.527C240.898 433.707 240.777 433.953 240.777 434.266C240.777 434.445 240.824 434.609 240.918 434.758C241.012 434.898 241.152 435.023 241.34 435.133C241.535 435.234 241.711 435.316 241.867 435.379C242.031 435.434 242.246 435.504 242.512 435.59C242.738 435.66 242.938 435.727 243.109 435.789C243.289 435.852 243.484 435.938 243.695 436.047C243.906 436.156 244.082 436.273 244.223 436.398C244.363 436.516 244.48 436.668 244.574 436.855C244.668 437.035 244.715 437.23 244.715 437.441C244.715 437.941 244.492 438.363 244.047 438.707C243.609 439.043 243.004 439.211 242.23 439.211C241.668 439.211 241.168 439.086 240.73 438.836C240.293 438.578 239.941 438.219 239.676 437.758ZM248.57 435.836C248.57 434.797 248.82 433.98 249.32 433.387C249.82 432.785 250.453 432.484 251.219 432.484C251.68 432.484 252.078 432.617 252.414 432.883C252.758 433.148 253 433.453 253.141 433.797V429.895H254.031V439H253.164V437.863C253 438.254 252.746 438.578 252.402 438.836C252.066 439.086 251.672 439.211 251.219 439.211C250.898 439.211 250.586 439.145 250.281 439.012C249.984 438.887 249.703 438.699 249.438 438.449C249.18 438.191 248.969 437.84 248.805 437.395C248.648 436.941 248.57 436.422 248.57 435.836ZM249.484 435.836C249.484 436.625 249.656 437.258 250 437.734C250.344 438.211 250.789 438.449 251.336 438.449C251.844 438.449 252.273 438.215 252.625 437.746C252.984 437.27 253.164 436.633 253.164 435.836C253.164 435.047 252.984 434.418 252.625 433.949C252.273 433.48 251.844 433.246 251.336 433.246C250.781 433.246 250.332 433.484 249.988 433.961C249.652 434.43 249.484 435.055 249.484 435.836ZM256.07 431.277V430.094H257.219V431.277H256.07ZM256.211 439V432.695H257.102V439H256.211ZM258.684 437.758L259.363 437.359C259.824 438.086 260.449 438.449 261.238 438.449C261.715 438.449 262.094 438.363 262.375 438.191C262.664 438.02 262.809 437.77 262.809 437.441C262.809 437.301 262.773 437.176 262.703 437.066C262.633 436.949 262.555 436.855 262.469 436.785C262.391 436.707 262.246 436.625 262.035 436.539C261.824 436.445 261.648 436.379 261.508 436.34C261.375 436.293 261.152 436.219 260.84 436.117C260.566 436.031 260.332 435.945 260.137 435.859C259.941 435.773 259.738 435.66 259.527 435.52C259.316 435.371 259.152 435.191 259.035 434.98C258.926 434.77 258.871 434.527 258.871 434.254C258.871 433.73 259.082 433.305 259.504 432.977C259.926 432.648 260.504 432.484 261.238 432.484C261.754 432.484 262.227 432.621 262.656 432.895C263.086 433.168 263.395 433.488 263.582 433.855L262.973 434.254C262.809 433.98 262.57 433.746 262.258 433.551C261.953 433.348 261.613 433.246 261.238 433.246C260.762 433.246 260.398 433.34 260.148 433.527C259.906 433.707 259.785 433.953 259.785 434.266C259.785 434.445 259.832 434.609 259.926 434.758C260.02 434.898 260.16 435.023 260.348 435.133C260.543 435.234 260.719 435.316 260.875 435.379C261.039 435.434 261.254 435.504 261.52 435.59C261.746 435.66 261.945 435.727 262.117 435.789C262.297 435.852 262.492 435.938 262.703 436.047C262.914 436.156 263.09 436.273 263.23 436.398C263.371 436.516 263.488 436.668 263.582 436.855C263.676 437.035 263.723 437.23 263.723 437.441C263.723 437.941 263.5 438.363 263.055 438.707C262.617 439.043 262.012 439.211 261.238 439.211C260.676 439.211 260.176 439.086 259.738 438.836C259.301 438.578 258.949 438.219 258.684 437.758ZM266.031 435.836C266.031 436.617 266.191 437.25 266.512 437.734C266.832 438.211 267.273 438.449 267.836 438.449C268.367 438.449 268.809 438.215 269.16 437.746C269.512 437.277 269.688 436.641 269.688 435.836C269.688 435.078 269.52 434.457 269.184 433.973C268.855 433.488 268.406 433.246 267.836 433.246C267.305 433.246 266.871 433.492 266.535 433.984C266.199 434.469 266.031 435.086 266.031 435.836ZM265.141 441.754V432.695H266.008V433.832C266.188 433.426 266.445 433.102 266.781 432.859C267.125 432.609 267.516 432.484 267.953 432.484C268.719 432.484 269.352 432.789 269.852 433.398C270.352 434.008 270.602 434.82 270.602 435.836C270.602 436.922 270.34 437.758 269.816 438.344C269.293 438.922 268.672 439.211 267.953 439.211C267.484 439.211 267.086 439.09 266.758 438.848C266.43 438.598 266.188 438.285 266.031 437.91V441.754H265.141ZM272.547 435.848C272.547 436.645 272.73 437.277 273.098 437.746C273.465 438.215 273.922 438.449 274.469 438.449C275.008 438.449 275.461 438.215 275.828 437.746C276.203 437.277 276.391 436.645 276.391 435.848C276.391 435.035 276.203 434.398 275.828 433.938C275.453 433.477 275 433.246 274.469 433.246C273.93 433.246 273.473 433.477 273.098 433.938C272.73 434.398 272.547 435.035 272.547 435.848ZM271.633 435.848C271.633 434.887 271.879 434.086 272.371 433.445C272.871 432.805 273.57 432.484 274.469 432.484C275.359 432.484 276.055 432.805 276.555 433.445C277.055 434.086 277.305 434.887 277.305 435.848C277.305 436.254 277.25 436.648 277.141 437.031C277.039 437.414 276.879 437.773 276.66 438.109C276.449 438.438 276.152 438.703 275.77 438.906C275.395 439.109 274.961 439.211 274.469 439.211C273.984 439.211 273.551 439.113 273.168 438.918C272.793 438.715 272.496 438.449 272.277 438.121C272.066 437.785 271.906 437.426 271.797 437.043C271.688 436.66 271.633 436.262 271.633 435.848ZM278.758 439V432.695H279.648V433.773H279.66C279.754 433.461 279.984 433.168 280.352 432.895C280.719 432.621 281.156 432.484 281.664 432.484C282.25 432.484 282.73 432.668 283.105 433.035C283.488 433.402 283.68 434.031 283.68 434.922V439H282.766V435.074C282.766 433.855 282.328 433.246 281.453 433.246C280.969 433.246 280.551 433.441 280.199 433.832C279.848 434.223 279.672 434.691 279.672 435.238V439H278.758ZM285.578 439V432.695H286.48V439H285.578ZM285.227 431.523L286.551 429.473H287.734L286.023 431.523H285.227ZM287.605 432.695H288.613L289.973 436.645C290.035 436.84 290.121 437.113 290.23 437.465C290.34 437.816 290.418 438.066 290.465 438.215H290.488C290.543 438.035 290.629 437.773 290.746 437.43C290.863 437.086 290.949 436.824 291.004 436.645L292.34 432.695H293.348L291.027 439H289.926L287.605 432.695ZM293.816 435.801C293.816 434.816 294.082 434.02 294.613 433.41C295.145 432.793 295.832 432.484 296.676 432.484C297.535 432.484 298.211 432.785 298.703 433.387C299.195 433.98 299.441 434.742 299.441 435.672C299.441 435.781 299.434 435.938 299.418 436.141H294.73C294.73 436.773 294.906 437.316 295.258 437.77C295.609 438.223 296.098 438.449 296.723 438.449C297.129 438.449 297.488 438.355 297.801 438.168C298.113 437.973 298.355 437.715 298.527 437.395L299.301 437.629C299.105 438.09 298.789 438.469 298.352 438.766C297.914 439.062 297.371 439.211 296.723 439.211C295.848 439.211 295.145 438.898 294.613 438.273C294.082 437.648 293.816 436.824 293.816 435.801ZM294.754 435.449H298.527C298.527 434.832 298.359 434.312 298.023 433.891C297.688 433.461 297.238 433.246 296.676 433.246C296.105 433.246 295.645 433.465 295.293 433.902C294.949 434.34 294.77 434.855 294.754 435.449ZM300.965 431.277V430.094H302.113V431.277H300.965ZM301.105 439V432.695H301.996V439H301.105ZM303.578 437.758L304.258 437.359C304.719 438.086 305.344 438.449 306.133 438.449C306.609 438.449 306.988 438.363 307.27 438.191C307.559 438.02 307.703 437.77 307.703 437.441C307.703 437.301 307.668 437.176 307.598 437.066C307.527 436.949 307.449 436.855 307.363 436.785C307.285 436.707 307.141 436.625 306.93 436.539C306.719 436.445 306.543 436.379 306.402 436.34C306.27 436.293 306.047 436.219 305.734 436.117C305.461 436.031 305.227 435.945 305.031 435.859C304.836 435.773 304.633 435.66 304.422 435.52C304.211 435.371 304.047 435.191 303.93 434.98C303.82 434.77 303.766 434.527 303.766 434.254C303.766 433.73 303.977 433.305 304.398 432.977C304.82 432.648 305.398 432.484 306.133 432.484C306.648 432.484 307.121 432.621 307.551 432.895C307.98 433.168 308.289 433.488 308.477 433.855L307.867 434.254C307.703 433.98 307.465 433.746 307.152 433.551C306.848 433.348 306.508 433.246 306.133 433.246C305.656 433.246 305.293 433.34 305.043 433.527C304.801 433.707 304.68 433.953 304.68 434.266C304.68 434.445 304.727 434.609 304.82 434.758C304.914 434.898 305.055 435.023 305.242 435.133C305.438 435.234 305.613 435.316 305.77 435.379C305.934 435.434 306.148 435.504 306.414 435.59C306.641 435.66 306.84 435.727 307.012 435.789C307.191 435.852 307.387 435.938 307.598 436.047C307.809 436.156 307.984 436.273 308.125 436.398C308.266 436.516 308.383 436.668 308.477 436.855C308.57 437.035 308.617 437.23 308.617 437.441C308.617 437.941 308.395 438.363 307.949 438.707C307.512 439.043 306.906 439.211 306.133 439.211C305.57 439.211 305.07 439.086 304.633 438.836C304.195 438.578 303.844 438.219 303.578 437.758Z" fill="white"/>
</svg>
