<svg width="31" height="25" viewBox="0 0 31 25" fill="none" xmlns="http://www.w3.org/2000/svg">
<path d="M15.2605 7.89474L19.7273 12.0526C19.7273 11.9868 19.7273 11.9079 19.7273 11.8421C19.7273 10.7952 19.2819 9.79117 18.4891 9.05089C17.6964 8.31062 16.6211 7.89474 15.5 7.89474C15.4155 7.89474 15.345 7.89474 15.2605 7.89474ZM9.20136 8.94737L11.3855 10.9868C11.315 11.2632 11.2727 11.5395 11.2727 11.8421C11.2727 12.889 11.7181 13.893 12.5109 14.6333C13.3036 15.3736 14.3789 15.7895 15.5 15.7895C15.81 15.7895 16.12 15.75 16.4159 15.6842L18.6 17.7237C17.6559 18.1579 16.6132 18.4211 15.5 18.4211C13.6314 18.4211 11.8394 17.7279 10.5181 16.4941C9.19683 15.2603 8.45455 13.587 8.45455 11.8421C8.45455 10.8026 8.73636 9.82895 9.20136 8.94737ZM1.40909 1.67105L4.62182 4.67105L5.25591 5.26316C2.93091 6.97368 1.09909 9.21053 0 11.8421C2.43773 17.6184 8.45455 21.7105 15.5 21.7105C17.6841 21.7105 19.7695 21.3158 21.6718 20.6053L22.2777 21.1579L26.3923 25L28.1818 23.3289L3.19864 0M15.5 5.26316C17.3686 5.26316 19.1606 5.95629 20.4819 7.19009C21.8032 8.42388 22.5455 10.0973 22.5455 11.8421C22.5455 12.6842 22.3623 13.5 22.0382 14.2368L26.1668 18.0921C28.2805 16.4474 29.9714 14.2895 31 11.8421C28.5623 6.06579 22.5455 1.97368 15.5 1.97368C13.5273 1.97368 11.6391 2.30263 9.86364 2.89474L12.9214 5.72368C13.7245 5.43421 14.5841 5.26316 15.5 5.26316Z" fill="black" fill-opacity="0.5"/>
</svg>
