<svg width="29" height="20" viewBox="0 0 29 20" fill="none" xmlns="http://www.w3.org/2000/svg">
<path d="M14.5 0.3125C8.04163 0.3125 2.52621 4.32958 0.291626 10C2.52621 15.6704 8.04163 19.6875 14.5 19.6875C20.9583 19.6875 26.4737 15.6704 28.7083 10C26.4737 4.32958 20.9583 0.3125 14.5 0.3125ZM14.5 16.4583C10.935 16.4583 8.04163 13.565 8.04163 10C8.04163 6.435 10.935 3.54167 14.5 3.54167C18.065 3.54167 20.9583 6.435 20.9583 10C20.9583 13.565 18.065 16.4583 14.5 16.4583ZM14.5 6.125C12.3558 6.125 10.625 7.85583 10.625 10C10.625 12.1442 12.3558 13.875 14.5 13.875C16.6441 13.875 18.375 12.1442 18.375 10C18.375 7.85583 16.6441 6.125 14.5 6.125Z" fill="black" fill-opacity="0.5"/>
</svg>
